<svg xmlns="http://www.w3.org/2000/svg" viewBox="0 0 680 176" width="680" height="176" role="img" aria-label="How trials ended (query_agent · claude-haiku-4-5)">
<style>
svg{font:12px system-ui,-apple-system,"Segoe UI",sans-serif}
.bg{fill:#fcfcfb} .ink{fill:#0b0b0b} .ink2{fill:#52514e} .muted{fill:#898781}
.grid{stroke:#e1e0d9;stroke-width:1} .axis{stroke:#c3c2b7;stroke-width:1}
.n{fill:#d8d7d0;stroke:#d8d7d0} .s0{fill:#2a78d6;stroke:#2a78d6} .t0{stroke:#2a78d6} .s1{fill:#eb6834;stroke:#eb6834} .t1{stroke:#eb6834} .s2{fill:#1baf7a;stroke:#1baf7a} .t2{stroke:#1baf7a} .s3{fill:#eda100;stroke:#eda100} .t3{stroke:#eda100} .s4{fill:#e87ba4;stroke:#e87ba4} .t4{stroke:#e87ba4} .s5{fill:#008300;stroke:#008300} .t5{stroke:#008300} .s6{fill:#4a3aa7;stroke:#4a3aa7} .t6{stroke:#4a3aa7} .s7{fill:#e34948;stroke:#e34948} .t7{stroke:#e34948} .ring{stroke:#fcfcfb}
@media (prefers-color-scheme: dark){
.bg{fill:#1a1a19} .ink{fill:#fff} .ink2{fill:#c3c2b7} .grid{stroke:#2c2c2a} .axis{stroke:#383835}
.n{fill:#3a3a37;stroke:#3a3a37} .s0{fill:#3987e5;stroke:#3987e5} .t0{stroke:#3987e5} .s1{fill:#d95926;stroke:#d95926} .t1{stroke:#d95926} .s2{fill:#199e70;stroke:#199e70} .t2{stroke:#199e70} .s3{fill:#c98500;stroke:#c98500} .t3{stroke:#c98500} .s4{fill:#d55181;stroke:#d55181} .t4{stroke:#d55181} .s5{fill:#008300;stroke:#008300} .t5{stroke:#008300} .s6{fill:#9085e9;stroke:#9085e9} .t6{stroke:#9085e9} .s7{fill:#e66767;stroke:#e66767} .t7{stroke:#e66767} .ring{stroke:#1a1a19}}
</style>
<rect class="bg" width="680" height="176" rx="10"/>
<text class="ink" x="16" y="26" font-size="14" font-weight="600">How trials ended (query_agent · claude-haiku-4-5)</text>
<text class="muted" x="16" y="44">first thing that went wrong</text>
<rect class="n" x="16" y="59" width="10" height="10" rx="2"/><text class="ink2" x="32" y="68">pass</text><rect class="s0" x="76.8" y="59" width="10" height="10" rx="2"/><text class="ink2" x="92.8" y="68">retrieval miss</text><rect class="s1" x="199.6" y="59" width="10" height="10" rx="2"/><text class="ink2" x="215.6" y="68">wrong tool</text><rect class="s2" x="297.6" y="59" width="10" height="10" rx="2"/><text class="ink2" x="313.6" y="68">bad args</text><rect class="s3" x="383.20000000000005" y="59" width="10" height="10" rx="2"/><text class="ink2" x="399.20000000000005" y="68">hallucinated tool</text><rect class="s4" x="524.6" y="59" width="10" height="10" rx="2"/><text class="ink2" x="540.6" y="68">gave up</text><rect class="s5" x="16" y="77" width="10" height="10" rx="2"/><text class="ink2" x="32" y="86">step limit</text>
<text class="ink2" x="120" y="120" text-anchor="end">N=200k · k=3</text>
<rect class="n" x="130" y="108" width="220.3" height="16" rx="3"><title>N=200k · k=3 · pass: 9/20</title></rect>
<rect class="s0" x="352.3" y="108" width="220.3" height="16" rx="3"><title>N=200k · k=3 · retrieval miss: 9/20</title></rect>
<rect class="s1" x="574.6" y="108" width="47.400000000000006" height="16" rx="3"><title>N=200k · k=3 · wrong tool: 2/20</title></rect>
<text class="muted" x="632" y="120">n=20</text>
<text class="ink2" x="120" y="146" text-anchor="end">N=200k · k=10</text>
<rect class="n" x="130" y="134" width="269.70000000000005" height="16" rx="3"><title>N=200k · k=10 · pass: 11/20</title></rect>
<rect class="s0" x="401.70000000000005" y="134" width="96.80000000000001" height="16" rx="3"><title>N=200k · k=10 · retrieval miss: 4/20</title></rect>
<rect class="s1" x="500.50000000000006" y="134" width="121.5" height="16" rx="3"><title>N=200k · k=10 · wrong tool: 5/20</title></rect>
<text class="muted" x="632" y="146">n=20</text>
</svg>
